<svg width="27" height="26" viewBox="0 0 27 26" fill="none" xmlns="http://www.w3.org/2000/svg">
                    <path d="M26 10H24C23.9979 8.14414 23.2597 6.36489 21.9474 5.05259C20.6352 3.7403 18.8559 3.00212 17 3V1C19.3862 1.00265 21.6738 1.95171 23.3611 3.63896C25.0483 5.32622 25.9974 7.61387 26 10ZM24 26H23.83C4.18004 24.87 1.39004 8.29 1.00004 3.23C0.939082 2.43675 1.19572 1.65177 1.7135 1.04772C2.23128 0.443681 2.96779 0.0700447 3.76104 0.009001C3.84037 0.003001 3.92004 9.37591e-07 4.00004 9.37591e-07H9.27004C9.67059 -0.000386826 10.062 0.119511 10.3937 0.344163C10.7253 0.568815 10.9818 0.88787 11.13 1.26L12.65 5C12.7964 5.36355 12.8327 5.76208 12.7545 6.14609C12.6763 6.5301 12.4869 6.88267 12.21 7.16L10.08 9.31C10.4114 11.2013 11.3164 12.945 12.6724 14.3045C14.0283 15.664 15.7696 16.5737 17.66 16.91L19.83 14.76C20.1115 14.4862 20.4674 14.3013 20.8533 14.2283C21.2392 14.1554 21.638 14.1977 22 14.35L25.77 15.86C26.1366 16.0129 26.4493 16.2714 26.6683 16.6027C26.8874 16.9339 27.0028 17.3229 27 17.72V23C27 23.7957 26.684 24.5587 26.1214 25.1213C25.5588 25.6839 24.7957 26 24 26ZM4.00004 2C3.86871 1.99961 3.7386 2.02508 3.61712 2.07497C3.49565 2.12486 3.38519 2.19819 3.29205 2.29077C3.19891 2.38335 3.12492 2.49337 3.0743 2.61455C3.02368 2.73572 2.99743 2.86568 2.99704 2.997C2.99704 3.025 2.99804 3.05267 3.00004 3.08C3.46004 9 6.41004 23 23.94 24C24.2047 24.0159 24.4648 23.926 24.6632 23.7501C24.8617 23.5742 24.9821 23.3267 24.998 23.062L25 23V17.72L21.23 16.21L18.36 19.06L17.88 19C9.18004 17.91 8.00004 9.21 8.00004 9.12L7.94004 8.64L10.78 5.77L9.28004 2H4.00004Z" fill="#DC3639"></path>
                </svg>